<svg id="Layer_1" data-name="Layer 1" xmlns="http://www.w3.org/2000/svg" xmlns:xlink="http://www.w3.org/1999/xlink" viewBox="0 0 63 63"><defs><style>.cls-1{fill:url(#linear-gradient);}.cls-2{fill-rule:evenodd;fill:url(#linear-gradient-2);}</style><linearGradient id="linear-gradient" x1="0.33" y1="31.5" x2="62.67" y2="31.5" gradientUnits="userSpaceOnUse"><stop offset="0" stop-color="#06ffff"/><stop offset="1" stop-color="#4272e8"/></linearGradient><linearGradient id="linear-gradient-2" x1="24.06" y1="31.51" x2="38.94" y2="31.51" xlink:href="#linear-gradient"/></defs><title>icon-ico</title><path class="cls-1" d="M31.5.33a31.17,31.17,0,1,1-22,9.13A31.09,31.09,0,0,1,31.5.33ZM51.83,11.19a28.78,28.78,0,1,0,8.4,20.31,28.68,28.68,0,0,0-8.4-20.31Z"/><path class="cls-2" d="M33.88,25.13V22.58a1.34,1.34,0,0,1,1.4-1.52h3.57V15.61H33.93c-5.47,0-6.69,4-6.69,6.66v2.86H24.06V31.5h3.21V47.41h6.37V31.5h4.71l.21-2.5.38-3.87Z"/></svg>