<svg xmlns="http://www.w3.org/2000/svg" xmlns:xlink="http://www.w3.org/1999/xlink" viewBox="0 0 27.78 18.74"><defs><style>.cls-1{fill:url(#linear-gradient);}.cls-2{fill:url(#linear-gradient-2);}.cls-3{fill:url(#linear-gradient-3);}.cls-4{fill:url(#linear-gradient-4);}</style><linearGradient id="linear-gradient" x1="1.09" y1="13.78" x2="26.29" y2="13.78" gradientTransform="matrix(1, 0, 0, -1, 0, 19.74)" gradientUnits="userSpaceOnUse"><stop offset="0" stop-color="#06ffff"/><stop offset="1" stop-color="#4272e8"/></linearGradient><linearGradient id="linear-gradient-2" x1="20.07" y1="11.39" x2="27.78" y2="11.39" xlink:href="#linear-gradient"/><linearGradient id="linear-gradient-3" x1="0" y1="11.06" x2="7.49" y2="11.06" xlink:href="#linear-gradient"/><linearGradient id="linear-gradient-4" x1="0.33" y1="5.48" x2="27.59" y2="5.48" xlink:href="#linear-gradient"/></defs><title>Asset 1</title><g id="Layer_2" data-name="Layer 2"><g id="Layer_1-2" data-name="Layer 1"><path class="cls-1" d="M13.88,11.92,26.29.16A2.73,2.73,0,0,0,25.37,0h-23a2.56,2.56,0,0,0-1.3.37Z"/><path class="cls-2" d="M27.62,1.39,20.07,8.54l7.71,6.76V2.08A2,2,0,0,0,27.62,1.39Z"/><path class="cls-3" d="M7.49,8.57.06,1.87A2,2,0,0,0,0,2.1V15.5Z"/><path class="cls-4" d="M18.76,9.78l-4.85,4.59L8.83,9.78.33,17.64a2.42,2.42,0,0,0,2.06,1.1h23a2.45,2.45,0,0,0,2.2-1.24Z"/></g></g></svg>