<svg id="Layer_1" data-name="Layer 1" xmlns="http://www.w3.org/2000/svg" xmlns:xlink="http://www.w3.org/1999/xlink" viewBox="0 0 63 63"><defs><style>.cls-1{fill:url(#linear-gradient);}.cls-2{fill:url(#linear-gradient-2);}</style><linearGradient id="linear-gradient" x1="0.33" y1="31.5" x2="62.67" y2="31.5" gradientUnits="userSpaceOnUse"><stop offset="0" stop-color="#06ffff"/><stop offset="1" stop-color="#4272e8"/></linearGradient><linearGradient id="linear-gradient-2" x1="14.94" y1="33.22" x2="44.62" y2="33.22" xlink:href="#linear-gradient"/></defs><title>icon-ico</title><path class="cls-1" d="M31.5.33a31.17,31.17,0,1,1-22,9.13A31.09,31.09,0,0,1,31.5.33ZM51.83,11.19a28.78,28.78,0,1,0,8.4,20.31,28.68,28.68,0,0,0-8.4-20.31Z"/><path class="cls-2" d="M42.71,20.81,15.57,31.39a1,1,0,0,0,.08,1.87l6.9,2,2.57,8.17a1.19,1.19,0,0,0,2,.47l3.56-3.64,7,5.14A1.46,1.46,0,0,0,40,44.56L44.59,22.4A1.4,1.4,0,0,0,42.71,20.81Zm-3.4,4.92L26.7,36.88a.72.72,0,0,0-.22.43L26,41.63a.13.13,0,0,1-.25,0l-2-6.43a.68.68,0,0,1,.29-.78l14.89-9.23A.33.33,0,0,1,39.31,25.73Z"/></svg>