<svg xmlns="http://www.w3.org/2000/svg" xmlns:xlink="http://www.w3.org/1999/xlink" viewBox="0 0 29.66 24.99"><defs><style>.cls-1{fill:url(#linear-gradient);}</style><linearGradient id="linear-gradient" y1="10.08" x2="29.66" y2="10.08" gradientTransform="matrix(1, 0, 0, -1, 0, 22.57)" gradientUnits="userSpaceOnUse"><stop offset="0" stop-color="#06ffff"/><stop offset="1" stop-color="#4272e8"/></linearGradient></defs><title>Asset 2</title><g id="Layer_2" data-name="Layer 2"><g id="Layer_1-2" data-name="Layer 1"><path class="cls-1" d="M27.75.1.61,10.68a1,1,0,0,0,.08,1.87l6.9,2,2.57,8.17a1.19,1.19,0,0,0,2,.47l3.56-3.64,7,5.14A1.46,1.46,0,0,0,25,23.85L29.63,1.69A1.4,1.4,0,0,0,27.75.1ZM24.35,5,11.74,16.17a.72.72,0,0,0-.22.43L11,20.92a.13.13,0,0,1-.25,0l-2-6.43a.68.68,0,0,1,.29-.78L24,4.48a.33.33,0,0,1,.38.54Z"/></g></g></svg>