<svg id="Layer_1" data-name="Layer 1" xmlns="http://www.w3.org/2000/svg" xmlns:xlink="http://www.w3.org/1999/xlink" viewBox="0 0 63 63"><defs><style>.cls-1{fill:url(#linear-gradient);}.cls-2{fill-rule:evenodd;fill:url(#linear-gradient-2);}</style><linearGradient id="linear-gradient" x1="0.33" y1="31.5" x2="62.67" y2="31.5" gradientUnits="userSpaceOnUse"><stop offset="0" stop-color="#06ffff"/><stop offset="1" stop-color="#4272e8"/></linearGradient><linearGradient id="linear-gradient-2" x1="15.59" x2="47.41" xlink:href="#linear-gradient"/></defs><title>icon-ico</title><path class="cls-1" d="M31.5.32a31.17,31.17,0,1,1-22,9.13A31.17,31.17,0,0,1,31.5.32ZM51.81,11.18a28.73,28.73,0,1,0,8.42,20.33,28.59,28.59,0,0,0-8.42-20.33Z"/><path class="cls-2" d="M47.41,21.79a13.86,13.86,0,0,1-3.74,1,6.46,6.46,0,0,0,2.88-3.57,13.31,13.31,0,0,1-4.16,1.57,6.55,6.55,0,0,0-11.3,4.38,6.36,6.36,0,0,0,.19,1.47A18.54,18.54,0,0,1,17.81,20a6.35,6.35,0,0,0,2,8.57,6.27,6.27,0,0,1-2.95-.79v.09a6.16,6.16,0,0,0,.44,2.31,6.52,6.52,0,0,0,4.8,4,6.61,6.61,0,0,1-1.72.24,5.59,5.59,0,0,1-1.23-.14,6.59,6.59,0,0,0,6.09,4.49,13.22,13.22,0,0,1-8.09,2.74c-.54,0-1,0-1.57-.08a18.86,18.86,0,0,0,10,2.88,18.17,18.17,0,0,0,18.14-14.4A17.88,17.88,0,0,0,44.17,26v-.83a13.31,13.31,0,0,0,3.24-3.33Z"/></svg>