<svg id="Layer_1" data-name="Layer 1" xmlns="http://www.w3.org/2000/svg" xmlns:xlink="http://www.w3.org/1999/xlink" viewBox="0 0 63 63"><defs><style>.cls-1{fill:url(#linear-gradient);}.cls-2{fill:url(#linear-gradient-2);}.cls-3{fill:url(#linear-gradient-3);}.cls-4{fill:url(#linear-gradient-4);}.cls-5{fill:url(#linear-gradient-5);}</style><linearGradient id="linear-gradient" x1="0.33" y1="31.5" x2="62.67" y2="31.5" gradientUnits="userSpaceOnUse"><stop offset="0" stop-color="#06ffff"/><stop offset="1" stop-color="#4272e8"/></linearGradient><linearGradient id="linear-gradient-2" x1="18.72" y1="28.09" x2="43.9" y2="28.09" xlink:href="#linear-gradient"/><linearGradient id="linear-gradient-3" x1="37.68" y1="30.47" x2="45.39" y2="30.47" xlink:href="#linear-gradient"/><linearGradient id="linear-gradient-4" x1="17.61" y1="30.8" x2="25.1" y2="30.8" xlink:href="#linear-gradient"/><linearGradient id="linear-gradient-5" x1="17.94" y1="36.39" x2="45.18" y2="36.39" xlink:href="#linear-gradient"/></defs><title>icon-ico</title><path class="cls-1" d="M31.5.33a31.17,31.17,0,1,1-22,9.13A31.09,31.09,0,0,1,31.5.33ZM51.83,11.19a28.78,28.78,0,1,0,8.4,20.31,28.68,28.68,0,0,0-8.4-20.31Z"/><path class="cls-2" d="M31.49,34.05,43.9,22.29a2.73,2.73,0,0,0-.92-.16H20a2.56,2.56,0,0,0-1.3.37Z"/><path class="cls-3" d="M45.23,23.52l-7.55,7.15,7.71,6.76V24.21A2,2,0,0,0,45.23,23.52Z"/><path class="cls-4" d="M25.1,30.7,17.67,24a2,2,0,0,0-.06.23v13.4Z"/><path class="cls-5" d="M36.37,31.91,31.52,36.5l-5.08-4.59-8.5,7.86A2.42,2.42,0,0,0,20,40.87H43a2.45,2.45,0,0,0,2.2-1.24Z"/></svg>