<svg xmlns="http://www.w3.org/2000/svg" viewBox="0 0 80 82.9"><defs><style>.cls-1{opacity:0.3;}.cls-2{fill:#f83a1f;}.cls-3{fill:#d81721;}.cls-4{fill:#ab111d;}.cls-5{fill:#ffa800;}.cls-6{fill:#ffd200;}.cls-7{fill:#e27c00;}</style></defs><title>Asset 9</title><g id="Layer_2" data-name="Layer 2"><g id="Layer_1-2" data-name="Layer 1"><ellipse class="cls-1" cx="40" cy="75.24" rx="40" ry="7.66"/><polygon class="cls-2" points="76.63 26.23 46.09 33.02 36.68 34.26 36.68 34.26 30.41 33.04 2.31 23.67 36.65 19.23 76.63 26.23"/><polygon class="cls-2" points="36.68 34.26 36.68 80.22 36.65 80.21 12.41 72.36 6.86 38.27 5.21 28.11 30.41 33.04 36.65 34.26 36.68 34.26"/><polygon class="cls-2" points="36.68 80.22 69.17 71.34 72.87 29.48 36.68 34.26 36.68 80.22"/><polygon class="cls-2" points="76.63 26.23 75.6 40.59 71.84 41.15 36.68 46.41 36.65 46.41 6.86 38.27 2.82 37.17 2.31 23.67 36.65 30.85 76.63 26.23"/><polygon class="cls-3" points="36.65 30.85 36.65 80.21 12.41 72.36 7.88 44.51 6.86 38.27 2.82 37.17 2.31 23.67 36.65 30.85"/><polygon class="cls-4" points="36.68 46.41 36.65 51.29 7.88 44.51 6.86 38.27 36.65 46.41 36.68 46.41"/><polygon class="cls-3" points="36.65 46.39 71.84 41.1 71.37 46.41 36.65 51.35 36.65 46.39"/><path class="cls-5" d="M25.26,7.84a5.73,5.73,0,0,0-.84,7.57c2.12,3.11,11.79,8.71,11.79,8.71H34.33S23.57,22.08,19,15.92,19.61,2.31,25.26,7.84Z"/><path class="cls-6" d="M34.33,24.13S12.7,17,19.47,8.07C25.28.38,36.21,24.13,36.21,24.13h3.93S38.6-5.6,22,1.57C11.54,6.12,15.88,23.1,34.33,24.13Z"/><path class="cls-5" d="M51.09,7.38A5.73,5.73,0,0,1,51.93,15c-2.12,3.11-11.79,8.71-11.79,8.71H42s10.76-2.05,15.38-8.2S56.74,1.86,51.09,7.38Z"/><path class="cls-6" d="M42,23.67s21.63-7.1,14.86-16.06C51.08-.08,40.14,23.67,40.14,23.67H36.21S37.75-6.06,54.32,1.12C64.81,5.66,60.47,22.65,42,23.67Z"/><polygon class="cls-5" points="35.45 23.67 15.67 26.46 16.43 40.88 18.33 74.28 26.63 76.97 26.7 28.99 39.38 23.67 35.45 23.67"/><polygon class="cls-6" points="35.23 23.6 51.8 28.39 50.98 76.31 59.54 73.97 61.17 40.2 61.94 25.78 42.16 22.99 35.23 23.6"/><polygon class="cls-7" points="16.43 40.88 26.68 43.68 26.68 48.94 16.72 46.59 16.43 40.88"/><polygon class="cls-5" points="51.53 44.15 61.05 42.76 60.8 47.91 51.42 49.25 51.53 44.15"/></g></g></svg>